<?xml version="1.0" encoding="UTF-8"?>
<svg id="Layer_1" data-name="Layer 1" xmlns="http://www.w3.org/2000/svg" viewBox="0 0 582.89 113.95">
  <defs>
    <style>
      .cls-11 {
        fill: #5558fa;
      }
    </style>
  </defs>
  <g>
    <g>
      <path class="cls-11" d="M107.18,41.16l-.1-.09,.12-.06c2.57-1.2,4.77-2.75,6.53-4.6,2.1-2.27,3.17-4.66,3.17-7.08s-.98-4.06-2.92-5.24c-1.64-.96-3.72-1.45-6.16-1.45H57.85c-.7,0-1.13,.23-1.31,.71-6.21,14.24-10.79,24.69-13.53,30.94-2.16,4.92-3.36,7.67-3.44,7.87,0,.12,.02,.43,.67,.43h49.86c3.64,0,7.26-1.17,10.75-3.49,3.49-2.32,6.02-5.2,7.52-8.56,.69-1.5,1.04-2.94,1.04-4.29,0-2.07-.75-3.78-2.24-5.08Zm-14.47-7.82c-.57,1.22-1.63,2.21-3.15,2.94-1.38,.65-2.83,.98-4.32,.98h-7.49c-.77,0-1.29,.27-1.53,.81l-2.38,5.44v.03s-.04,.12-.06,.21v.03c0,.28,.15,.61,.9,.61h7.49c2.26,0,3.4,1.03,3.4,3.07s-.91,3.94-2.7,5.67c-1.79,1.69-3.72,2.55-5.74,2.55h-11.77l11.53-26.14h11.84c2.83,0,4.27,.86,4.27,2.55,0,.38-.09,.8-.28,1.25Z"/>
      <path class="cls-11" d="M175.02,22.9c-.14-.17-.37-.26-.69-.26h-5.28c-.37,0-.69,.09-.93,.28l-58.62,38.59c-.4,.25-.6,.49-.6,.69,0,.25,.28,.38,.84,.38h53.09c.07,0,.13-.04,.16-.1,.03-.06,.02-.13-.02-.18l-4.13-6.39s-.08-.06-.14-.06h-32.41l28.98-19.32,16.59,25.8c.11,.17,.31,.26,.62,.26h26c.92,0,1.48-.29,1.49-.78-.14-.28-2.5-3.94-6.71-10.5-4.1-6.37-10.28-16-18.23-28.41Z"/>
      <path class="cls-11" d="M276.77,23.07c0-.1,0-.43-.66-.43h-7.38c-.65,0-1.07,.23-1.28,.71l-7.84,18.18c-4.13,9.5-8.83,14.32-13.99,14.32h-17.89c-2.39,0-3.61-1.11-3.61-3.3,0-1.53,.77-4.08,2.28-7.58l9.36-21.67c0-.08,.02-.15,.06-.24,0-.19-.09-.42-.71-.42h-21.06c-.65,0-1.07,.23-1.28,.71l-8.09,18.97c-1.62,3.75-2.41,6.96-2.41,9.82,0,3.39,.98,6,2.92,7.77,1.94,1.77,4.62,2.67,7.95,2.67h29.1s.09,0,.09,0c5.44,0,10.75-2.12,15.78-6.3,4.55-3.82,8.06-8.55,10.43-14.06,3.49-8.07,8.15-18.84,8.22-19.16Z"/>
      <path class="cls-11" d="M358.25,22.64h-7.6c-.32,0-.61,.09-.88,.28l-40.41,25.43-.05-.07-16.31-25.38c-.13-.17-.36-.26-.68-.26h-8.53c-.67,0-1.1,.23-1.32,.71-11.5,26.01-16.95,38.35-17.12,38.8,0,.12,.03,.43,.73,.43h8.01c.67,0,1.1-.23,1.32-.71l8.18-17.94,11.87,18.46c.11,.11,.68,.26,2.71,.26,1.34,0,2.18-.11,2.5-.33l25.37-16.29-.11,.26c-4.22,9.57-6.86,15.58-6.96,15.88,0,.12,.02,.43,.73,.43h20.93s.09,0,.09,0c.67,0,1.1-.23,1.31-.71,4.77-10.94,8.54-19.56,11.3-25.86,3.56-8.15,5.54-12.67,5.64-12.94,0-.12-.03-.43-.73-.43Z"/>
    </g>
    <g>
      <path class="cls-11" d="M434.85,62.64c-1.29,0-2.05-.41-2.52-1.17l-12.2-23.52-25.87,17.77h26.63c.76,0,1.06,.29,1.06,.76,0,.18-.06,.53-.23,.82l-1.64,3.75c-.47,1.06-1.23,1.58-2.23,1.58h-39.12c-.53,0-.76-.23-.76-.7,0-.41,.35-.82,.94-1.23l53.26-36.95c1.06-.7,1.99-1.11,2.99-1.11h3.81c1.11,0,1.7,.41,2.11,1.11l19.82,36.83c.06,.23,.12,.47,.12,.7,0,.7-.59,1.35-1.88,1.35h-24.28Z"/>
      <path class="cls-11" d="M469.36,62.64c-.7,0-1.06-.23-1.06-.7,0-.29,.06-.53,.18-.88l16.48-36.89c.47-1,1.23-1.52,2.23-1.52h20.18c.76,0,1.11,.23,1.11,.76,0,.23-.06,.47-.23,.76l-16.42,36.89c-.47,1.06-1.23,1.58-2.23,1.58h-20.23Z"/>
    </g>
  </g>
  <g>
    <path class="cls-11" d="M387.11,81.13h-5.37l-5.23,11.82h5.34c2.12,0,3.6-1.24,5.21-4.81l1.27-2.88c.56-1.24,.85-2.17,.85-2.78,0-1-.71-1.35-2.06-1.35Z"/>
    <path class="cls-11" d="M487.88,72.52h-222.85c-.79,0-1.39,.42-1.76,1.21l-11.62,26.62c-.09,.28-.14,.46-.14,.7,0,.37,.28,.56,.84,.56h222.9c.79,0,1.39-.42,1.76-1.25l11.57-26.62c.14-.23,.19-.42,.19-.6,0-.42-.28-.6-.88-.6Zm-200.6,17.18h-9.86c-.32,0-.48-.13-.48-.34,0-.11,0-.24,.08-.37l.77-1.69c.21-.48,.53-.71,1-.71h3.36c2.56,0,4.52-1.37,4.52-3.73,0-1.14-.85-1.72-2.09-1.72h-5.66l-6.32,14.22c-.21,.48-.56,.71-1.03,.71h-9.07c-.32,0-.48-.11-.48-.32,0-.13,.03-.24,.08-.4l7.43-16.63c.21-.45,.53-.69,1-.69h22.58c2.59,0,4.2,1.4,4.2,3.78,0,4.76-4.89,7.88-10.05,7.88Zm36.96-1.96l3.99,7.48c.03,.05,.05,.16,.05,.24,0,.29-.29,.61-.71,.61h-8.83c-.69,0-1.19-.21-1.45-.71l-4.42-8.38c-.11-.16-.19-.29-.19-.5,0-.11,.05-.26,.16-.48l.29-.61c.21-.45,.53-.69,1-.69h3.6c2.3,0,3.49-1.11,3.49-2.38,0-.74-.61-1.19-1.9-1.19h-5.9l-6.35,14.22c-.21,.48-.53,.71-1,.71h-9.07c-.32,0-.5-.11-.5-.32,0-.13,.03-.24,.11-.4l7.43-16.63c.21-.45,.53-.69,1-.69h23.11c2.46,0,3.97,1.3,3.97,3.2,0,3.46-3.57,5.98-7.88,6.5Zm39.12-2.56l-.98,2.14c-.13,.32-.45,.48-.9,.48h-12.64c-.32,0-.48-.11-.48-.32,0-.11,.03-.24,.11-.37l.74-1.72c.21-.45,.56-.69,1.03-.69h12.61c.37,0,.56,.08,.56,.26,0,.05-.03,.13-.05,.21Zm-11.02-4.05c-2.27,0-3.52,.87-4.94,4.12l-1.27,2.88c-.66,1.48-1,2.54-1,3.3,0,1.08,.69,1.51,1.96,1.51h12.4c.32,0,.48,.13,.48,.34,0,.08-.03,.24-.11,.37l-.74,1.69c-.21,.48-.56,.71-1.03,.71h-18.56c-3.6,0-5.63-2.38-5.63-5.71,0-6.16,6.69-12.32,13.67-12.32h18.48c.32,0,.48,.11,.48,.34,0,.11-.03,.21-.08,.34l-.77,1.69c-.21,.48-.56,.71-1.03,.71h-12.29Zm34.25,14.94h-21.26c-.32,0-.48-.11-.48-.32,0-.13,.03-.24,.08-.4l7.43-16.63c.21-.45,.53-.69,1-.69h21.26c3.7,0,5.66,2.38,5.66,5.63,0,6.45-7.03,12.4-13.69,12.4Zm23.37,0h-9.12c-.32,0-.48-.11-.48-.32,0-.13,.03-.24,.08-.4l7.43-16.63c.21-.45,.56-.69,1-.69h9.09c.34,0,.5,.11,.5,.34,0,.11-.03,.21-.11,.34l-7.4,16.63c-.21,.48-.56,.71-1,.71Zm40.25-17.34l-.77,1.69c-.21,.48-.56,.71-1.03,.71h-11.82c-2.27,0-3.52,.87-4.94,4.12l-1.27,2.88c-.66,1.48-1,2.54-1,3.3,0,1.08,.69,1.51,1.96,1.51h11.92c.34,0,.48,.13,.48,.34,0,.08-.03,.24-.11,.37l-.74,1.69c-.21,.48-.56,.71-1,.71h-18.11c-3.6,0-5.63-2.38-5.63-5.71,0-6.16,6.69-12.32,13.67-12.32h18c.32,0,.48,.11,.48,.34,0,.11,0,.21-.08,.34Zm32.15-.34l-1.08,2.46c-.11,.21-.32,.29-.63,.29h-7.77l-6.48,14.59c-.11,.24-.32,.34-.63,.34h-9.49c-.24,0-.4-.08-.4-.19,0-.05,.03-.11,.05-.16l6.48-14.59h-7.72c-.26,0-.37-.05-.37-.19v-.11l1.08-2.46c.13-.24,.34-.34,.66-.34h25.96c.24,0,.37,.05,.37,.18,0,.05-.03,.11-.03,.16Z"/>
  </g>
</svg>